<svg id="Layer_1" data-name="Layer 1" xmlns="http://www.w3.org/2000/svg" viewBox="0 0 123.76 48.79"><defs><style>.cls-1{fill:#ff3d69;stroke:#ff3d69;stroke-miterlimit:10;}.cls-2{fill:#040416;}</style></defs><title>logo</title><path class="cls-1" d="M123.2,21.9,119.54,24a1.12,1.12,0,0,1-1.12,0l-3.68-2.11a1.12,1.12,0,0,1-.56-1l0-4.24a1.12,1.12,0,0,1,.56-1l3.67-2.13a1.12,1.12,0,0,1,1.12,0l3.68,2.11a1.12,1.12,0,0,1,.56,1l0,4.24A1.12,1.12,0,0,1,123.2,21.9Z" transform="translate(-0.5 -0.52)"/><path class="cls-1" d="M40.85,39.34,26.23,47.86a7,7,0,0,1-7,0L4.57,39.48a7,7,0,0,1-3.51-6L1,16.53a7,7,0,0,1,3.46-6L19.09,2a7,7,0,0,1,7,0l14.69,8.41a7,7,0,0,1,3.51,6l.06,16.93A7,7,0,0,1,40.85,39.34Z" transform="translate(-0.5 -0.52)"/><path class="cls-2" d="M22.76,11.31c6.65,0,11.12,3.37,12.57,9.18H28.05a5.23,5.23,0,0,0-5.35-3.61c-3.76,0-6.26,2.76-6.26,7.82s2.5,7.77,6.26,7.77c2.79,0,4.53-1.22,5.35-3.56h7.27c-1.44,5.53-5.92,9.18-12.57,9.18-7.7,0-13.19-5.24-13.19-13.39S15.05,11.31,22.76,11.31Z" transform="translate(-0.5 -0.52)"/><path class="cls-2" d="M55,31H51.84V18.33H55v2a4.4,4.4,0,0,1,3.9-2.15v3.37h-.85c-1.9,0-3,.73-3,3.18Z" transform="translate(-0.5 -0.52)"/><path class="cls-2" d="M66.64,31.24a6.15,6.15,0,0,1-6.37-6.55c0-4,2.61-6.55,6.37-6.55a6,6,0,0,1,6.26,6.28,7.5,7.5,0,0,1-.09,1.24H63.52a3,3,0,0,0,3,2.93A2.62,2.62,0,0,0,69.12,27h3.46A5.9,5.9,0,0,1,66.64,31.24Zm-3.09-7.75h6a2.82,2.82,0,0,0-3-2.73A3,3,0,0,0,63.55,23.49Z" transform="translate(-0.5 -0.52)"/><path class="cls-2" d="M73.81,18.33h3.25L79.31,28l2.43-9.67h3.39L87.51,28l2.25-9.65h3.07L89.12,31H85.66l-2.31-8.87L81,31H77.55Z" transform="translate(-0.5 -0.52)"/><path class="cls-2" d="M99.54,18.13a5,5,0,0,1,4.19,2V18.33H107V31h-3.23V29.17a5,5,0,0,1-4.22,2.06c-3.21,0-5.77-2.64-5.77-6.6S96.31,18.13,99.54,18.13Zm.83,2.82A3.39,3.39,0,0,0,97,24.64a3.47,3.47,0,0,0,3.35,3.78,3.42,3.42,0,0,0,3.37-3.73A3.42,3.42,0,0,0,100.37,20.95Z" transform="translate(-0.5 -0.52)"/><path class="cls-2" d="M118.84,18.33h3.41L114.39,37H111l2.75-6.32-5.09-12.37h3.6l3.28,8.87Z" transform="translate(-0.5 -0.52)"/></svg>